<svg width="300" height="235" viewBox="0 0 300 235" fill="none" xmlns="http://www.w3.org/2000/svg">
<path d="M149.7 182.359C112.72 122.679 40 168.079 40 168.079C111.66 153.359 149.7 194.979 149.7 194.979C149.7 194.979 187.74 153.379 259.4 168.079C259.4 168.079 186.68 122.679 149.7 182.359Z" fill="#0E6032"/>
<path d="M241.1 140.459C233.54 136.679 175.12 113.139 149.68 156.439C124.26 113.159 65.84 136.679 58.26 140.459C50.7 144.239 46.5 156.439 46.5 156.439C109.12 121.979 149.68 172.419 149.68 172.419C149.68 172.419 190.24 121.979 252.86 156.439C252.86 156.439 248.66 144.259 241.1 140.459Z" fill="#75AC42"/>
<path d="M149.7 139.181C149.7 139.181 155.34 105.941 204.64 114.921C207.26 112.681 155.18 60.6214 149.7 139.181Z" fill="#75AC42"/>
<path d="M172.24 91.4605C180.635 91.4605 187.44 84.6553 187.44 76.2605C187.44 67.8658 180.635 61.0605 172.24 61.0605C163.845 61.0605 157.04 67.8658 157.04 76.2605C157.04 84.6553 163.845 91.4605 172.24 91.4605Z" fill="#75AC42"/>
<path d="M178.32 92.4999C178.32 92.4999 197.98 92.2599 201.36 104.04C201.36 104.04 227.78 82.3599 231.16 67.9199C231.16 67.9199 196.14 87.5799 178.34 92.4999H178.32Z" fill="#75AC42"/>
<path d="M78.7202 62.6605C78.7202 62.6605 102.36 91.8405 124.78 78.6405C124.78 78.6405 114.64 63.9005 109.42 62.6605C104.2 61.4205 78.7002 62.6605 78.7002 62.6605H78.7202Z" fill="#146BB5"/>
<path d="M129.4 76.6602C129.4 76.6602 127.26 105.52 109.74 123.34C109.74 123.34 143.22 119.34 147.2 82.8002L129.38 76.6602H129.4Z" fill="#146BB5"/>
<path d="M140.84 72.08C149.698 72.08 156.88 64.8986 156.88 56.04C156.88 47.1814 149.698 40 140.84 40C131.981 40 124.8 47.1814 124.8 56.04C124.8 64.8986 131.981 72.08 140.84 72.08Z" fill="#146BB5"/>
</svg>
