<svg width="575" height="235" viewBox="0 0 575 235" fill="none" xmlns="http://www.w3.org/2000/svg">
<path d="M149.7 182.359C112.72 122.679 40 168.079 40 168.079C111.66 153.359 149.7 194.979 149.7 194.979C149.7 194.979 187.74 153.379 259.4 168.079C259.4 168.079 186.68 122.679 149.7 182.359Z" fill="#0E6032"/>
<path d="M241.1 140.46C233.54 136.68 175.12 113.14 149.68 156.44C124.26 113.16 65.84 136.68 58.26 140.46C50.7 144.24 46.5 156.44 46.5 156.44C109.12 121.98 149.68 172.42 149.68 172.42C149.68 172.42 190.24 121.98 252.86 156.44C252.86 156.44 248.66 144.26 241.1 140.46Z" fill="#75AC42"/>
<path d="M149.7 139.181C149.7 139.181 155.34 105.941 204.64 114.921C207.26 112.681 155.18 60.6214 149.7 139.181Z" fill="#75AC42"/>
<path d="M172.24 91.4605C180.635 91.4605 187.44 84.6553 187.44 76.2605C187.44 67.8658 180.635 61.0605 172.24 61.0605C163.845 61.0605 157.04 67.8658 157.04 76.2605C157.04 84.6553 163.845 91.4605 172.24 91.4605Z" fill="#75AC42"/>
<path d="M178.32 92.4999C178.32 92.4999 197.98 92.2599 201.36 104.04C201.36 104.04 227.78 82.3599 231.16 67.9199C231.16 67.9199 196.14 87.5799 178.34 92.4999H178.32Z" fill="#75AC42"/>
<path d="M78.7202 62.6605C78.7202 62.6605 102.36 91.8405 124.78 78.6405C124.78 78.6405 114.64 63.9005 109.42 62.6605C104.2 61.4205 78.7002 62.6605 78.7002 62.6605H78.7202Z" fill="#146BB5"/>
<path d="M129.4 76.6602C129.4 76.6602 127.26 105.52 109.74 123.34C109.74 123.34 143.22 119.34 147.2 82.8002L129.38 76.6602H129.4Z" fill="#146BB5"/>
<path d="M140.84 72.08C149.698 72.08 156.88 64.8986 156.88 56.04C156.88 47.1814 149.698 40 140.84 40C131.981 40 124.8 47.1814 124.8 56.04C124.8 64.8986 131.981 72.08 140.84 72.08Z" fill="#146BB5"/>
<path d="M295.996 110.552H322.527V122.344H280.4V112.486L306.425 71.5952H281.066V59.8035H322.052V69.4714L296.028 110.521L295.996 110.552Z" fill="#75AC42"/>
<path d="M343.1 110.552H369.441V122.344H330.77V59.8347H368.998V71.6265H343.1V84.9398H366.779V96.5413H343.1V110.552Z" fill="#75AC42"/>
<path d="M390.424 110.552H414.261V122.344H378.094V59.8347H390.424V110.552Z" fill="#75AC42"/>
<path d="M456.801 59.8347H469.037V122.344H456.801V96.4463H433.598V122.344H421.268V59.8347H433.598V84.6545H456.801V59.8347Z" fill="#75AC42"/>
<path d="M521.719 122.344L517.757 111.091H492.081L488.341 122.344H475.027L496.899 59.8347H512.178L534.24 122.344H521.751H521.719ZM496.075 99.5844H513.668L504.634 74.0356L496.075 99.5844Z" fill="#75AC42"/>
<path d="M288.012 168.305H301.905V174.524H281.509V141.556H301.671V147.775H288.012V154.797H300.501V160.916H288.012V168.305Z" fill="#75AC42"/>
<path d="M319.577 141.555C324.091 141.555 327.869 143.143 330.895 146.303C333.921 149.479 335.442 153.391 335.442 158.022C335.442 162.653 333.921 166.582 330.895 169.742C327.869 172.918 324.091 174.506 319.577 174.506H306.486V141.538H319.577V141.555ZM319.577 168.304C322.436 168.304 324.759 167.351 326.548 165.462C328.337 163.556 329.24 161.082 329.24 158.039C329.24 154.996 328.337 152.522 326.548 150.616C324.759 148.71 322.436 147.774 319.577 147.774H312.99V168.304H319.577Z" fill="#75AC42"/>
<path d="M352.109 175.175C348.431 175.175 345.422 174.139 343.065 172.066C340.707 169.993 339.537 167.217 339.537 163.723V141.538H345.99V163.205C345.99 164.927 346.492 166.298 347.478 167.301C348.465 168.304 350.019 168.806 352.109 168.806C354.199 168.806 355.754 168.304 356.757 167.301C357.743 166.298 358.245 164.927 358.245 163.205V141.538H364.748V163.723C364.748 167.201 363.578 169.993 361.221 172.066C358.863 174.139 355.837 175.175 352.126 175.175H352.109Z" fill="#75AC42"/>
<path d="M386.214 175.176C381.249 175.176 377.153 173.521 373.926 170.227C370.7 166.934 369.078 162.871 369.078 158.023C369.078 153.175 370.7 149.079 373.926 145.802C377.153 142.525 381.249 140.887 386.214 140.887C389.19 140.887 391.949 141.589 394.473 142.976C396.998 144.364 398.97 146.27 400.391 148.644L394.791 151.887C393.972 150.416 392.818 149.263 391.313 148.427C389.809 147.591 388.104 147.173 386.231 147.173C383.021 147.173 380.447 148.176 378.491 150.182C376.534 152.188 375.548 154.796 375.548 158.006C375.548 161.216 376.534 163.774 378.491 165.78C380.447 167.786 383.038 168.789 386.231 168.789C388.12 168.789 389.825 168.372 391.347 167.536C392.868 166.7 394.022 165.563 394.807 164.125L400.408 167.368C399.004 169.759 397.031 171.648 394.523 173.036C392.016 174.44 389.257 175.126 386.231 175.126L386.214 175.176Z" fill="#75AC42"/>
<path d="M425.921 174.524L423.831 168.589H410.289L408.317 174.524H401.295L412.83 141.556H420.889L432.525 174.524H425.938H425.921ZM412.396 162.521H421.674L416.91 149.046L412.396 162.521Z" fill="#75AC42"/>
<path d="M455.111 141.556V147.775H446.217V174.524H439.713V147.775H430.853V141.556H455.111Z" fill="#75AC42"/>
<path d="M458.739 141.556H465.243V174.524H458.739V141.556Z" fill="#75AC42"/>
<path d="M499.097 170.21C495.77 173.52 491.724 175.175 486.942 175.175C482.161 175.175 478.132 173.52 474.822 170.21C471.512 166.9 469.856 162.837 469.856 158.039C469.856 153.241 471.512 149.179 474.822 145.868C478.132 142.558 482.178 140.903 486.942 140.903C491.707 140.903 495.77 142.558 499.097 145.868C502.424 149.179 504.095 153.241 504.095 158.039C504.095 162.837 502.424 166.9 499.097 170.21ZM479.369 165.78C481.409 167.803 483.933 168.823 486.959 168.823C489.985 168.823 492.493 167.803 494.549 165.78C496.589 163.757 497.609 161.166 497.609 158.039C497.609 154.913 496.589 152.305 494.549 150.265C492.51 148.226 489.985 147.206 486.959 147.206C483.933 147.206 481.409 148.226 479.369 150.265C477.33 152.305 476.31 154.896 476.31 158.039C476.31 161.182 477.33 163.757 479.369 165.78Z" fill="#75AC42"/>
<path d="M527.737 141.556H534.24V174.524H529.291L515.165 154.362V174.524H508.661V141.556H513.61L527.737 161.635V141.556Z" fill="#75AC42"/>
</svg>
